{
  "accessors": [
    {
      "bufferView": 2,
      "componentType": 5126,
      "count": 5224,
      "max": [
        0.5095278024673462,
        3.171520948410034,
        1.1257495880126953
      ],
      "min": [
        -0.5095278024673462,
        -1.7758495807647705,
        -0.837184727191925
      ],
      "type": "VEC3"
    },
    {
      "bufferView": 2,
      "byteOffset": 62688,
      "componentType": 5126,
      "count": 5224,
      "max": [
        0.9999997615814209,
        0.9999251365661621,
        0.9999538660049438
      ],
      "min": [
        -0.9999997615814209,
        -0.9985367655754089,
        -0.999995231628418
      ],
      "type": "VEC3"
    },
    {
      "bufferView": 3,
      "componentType": 5126,
      "count": 5224,
      "max": [
        0.9991100430488586,
        0.9999951720237732,
        0.9999251961708069,
        1.0
      ],
      "min": [
        -0.9991100430488586,
        -0.999822199344635,
        -0.9998074769973755,
        -1.0
      ],
      "type": "VEC4"
    },
    {
      "bufferView": 1,
      "componentType": 5126,
      "count": 5224,
      "max": [
        0.9824068546295166,
        0.9705486297607422
      ],
      "min": [
        0.01792702078819275,
        0.20307329297065735
      ],
      "type": "VEC2"
    },
    {
      "bufferView": 1,
      "byteOffset": 41792,
      "componentType": 5126,
      "count": 5224,
      "max": [
        0.9824068546295166,
        0.9705486297607422
      ],
      "min": [
        0.01792702078819275,
        0.20307329297065735
      ],
      "type": "VEC2"
    },
    {
      "bufferView": 0,
      "componentType": 5125,
      "count": 29526,
      "type": "SCALAR"
    }
  ],
  "asset": {
    "extras": {
      "author": "assetfactory (https://sketchfab.com/assetfactory)",
      "license": "SKETCHFAB Standard (https://sketchfab.com/licenses)",
      "source": "https://sketchfab.com/3d-models/green-fish-e8c06ff391bd4265931049b3f3c554d9",
      "title": "Green fish"
    },
    "generator": "Sketchfab-16.33.0",
    "version": "2.0"
  },
  "bufferViews": [
    {
      "buffer": 0,
      "byteLength": 118104,
      "name": "floatBufferViews",
      "target": 34963
    },
    {
      "buffer": 0,
      "byteLength": 83584,
      "byteOffset": 118104,
      "byteStride": 8,
      "name": "floatBufferViews",
      "target": 34962
    },
    {
      "buffer": 0,
      "byteLength": 125376,
      "byteOffset": 201688,
      "byteStride": 12,
      "name": "floatBufferViews",
      "target": 34962
    },
    {
      "buffer": 0,
      "byteLength": 83584,
      "byteOffset": 327064,
      "byteStride": 16,
      "name": "floatBufferViews",
      "target": 34962
    }
  ],
  "buffers": [
    {
      "byteLength": 410648,
      "uri": "scene.bin"
    }
  ],
  "images": [
    {
      "uri": "textures/fish_baseColor.jpeg"
    },
    {
      "uri": "textures/fish_normal.jpeg"
    }
  ],
  "materials": [
    {
      "doubleSided": true,
      "name": "fish",
      "normalTexture": {
        "index": 1
      },
      "pbrMetallicRoughness": {
        "baseColorTexture": {
          "index": 0
        },
        "metallicFactor": 0.0,
        "roughnessFactor": 0.3
      }
    }
  ],
  "meshes": [
    {
      "name": "fish_fish_0",
      "primitives": [
        {
          "attributes": {
            "NORMAL": 1,
            "POSITION": 0,
            "TANGENT": 2,
            "TEXCOORD_0": 3,
            "TEXCOORD_1": 4
          },
          "indices": 5,
          "material": 0,
          "mode": 4
        }
      ]
    }
  ],
  "nodes": [
    {
      "children": [
        1
      ],
      "matrix": [
        1.0,
        0.0,
        0.0,
        0.0,
        0.0,
        2.220446049250313e-16,
        -1.0,
        0.0,
        0.0,
        1.0,
        2.220446049250313e-16,
        0.0,
        0.0,
        0.0,
        0.0,
        1.0
      ],
      "name": "Sketchfab_model"
    },
    {
      "children": [
        2
      ],
      "matrix": [
        0.009999999776482582,
        0.0,
        0.0,
        0.0,
        0.0,
        0.0,
        0.009999999776482582,
        0.0,
        0.0,
        -0.009999999776482582,
        0.0,
        0.0,
        0.0,
        0.0,
        0.0,
        1.0
      ],
      "name": "3e3dfa57296c4d9db31175020c3afef7.fbx"
    },
    {
      "children": [
        3
      ],
      "name": "RootNode"
    },
    {
      "children": [
        4
      ],
      "matrix": [
        100.0,
        0.0,
        0.0,
        0.0,
        0.0,
        -1.629206793918314e-05,
        -99.99999999999868,
        0.0,
        0.0,
        99.99999999999868,
        -1.629206793918314e-05,
        0.0,
        0.0,
        0.0,
        68.18718719482422,
        1.0
      ],
      "name": "fish"
    },
    {
      "mesh": 0,
      "name": "fish_fish_0"
    }
  ],
  "samplers": [
    {
      "magFilter": 9729,
      "minFilter": 9987,
      "wrapS": 10497,
      "wrapT": 10497
    }
  ],
  "scene": 0,
  "scenes": [
    {
      "name": "Sketchfab_Scene",
      "nodes": [
        0
      ]
    }
  ],
  "textures": [
    {
      "sampler": 0,
      "source": 0
    },
    {
      "sampler": 0,
      "source": 1
    }
  ]
}
